<?xml version="1.0" standalone="no"?>
<!DOCTYPE svg PUBLIC "-//W3C//DTD SVG 20010904//EN"
 "http://www.w3.org/TR/2001/REC-SVG-20010904/DTD/svg10.dtd">
<svg version="1.0" xmlns="http://www.w3.org/2000/svg"
 width="700.000000pt" height="700.000000pt" viewBox="0 0 700.000000 700.000000"
 preserveAspectRatio="xMidYMid meet">
<metadata>
Created by potrace 1.14, written by Peter Selinger 2001-2017
</metadata>
<g transform="translate(0.000000,700.000000) scale(0.100000,-0.100000)"
fill="#000000" stroke="none">
<path d="M1200 6989 c-559 -44 -1029 -451 -1161 -1005 -24 -103 -39 -277 -39
-476 l0 -158 2703 0 c2984 0 2760 5 2848 -63 34 -26 131 -177 530 -827 269
-437 496 -815 504 -839 30 -90 12 -200 -47 -283 -55 -76 -1355 -1574 -1404
-1617 -26 -22 -71 -50 -103 -62 l-56 -21 -2487 2 -2488 1 0 -149 c0 -380 47
-602 177 -827 220 -384 599 -621 1047 -655 178 -14 4374 -14 4552 0 448 34
826 270 1047 655 98 171 151 350 168 569 7 95 9 865 6 2371 -3 2045 -5 2237
-20 2312 -58 281 -173 499 -367 693 -153 153 -307 249 -500 314 -226 75 -14
70 -2540 72 -1246 1 -2312 -2 -2370 -7z"/>
<path d="M2222 4345 c-111 -25 -222 -72 -329 -141 -60 -38 -60 -38 -44 59 l8
47 -211 0 -211 0 -98 -787 c-54 -434 -98 -796 -97 -806 0 -16 15 -17 222 -15
l223 3 72 580 c39 319 72 585 72 590 1 14 113 77 184 104 76 28 170 28 214 1
49 -29 73 -86 73 -171 0 -39 -27 -292 -60 -561 -33 -270 -60 -504 -60 -519 l0
-29 222 2 222 3 72 584 c82 671 59 595 204 665 72 35 96 41 160 44 90 4 128
-15 160 -77 31 -61 26 -129 -40 -675 -33 -271 -60 -505 -60 -520 l0 -26 222 2
223 3 72 585 c57 459 72 604 69 675 -11 238 -146 376 -381 392 -163 10 -348
-55 -566 -200 l-25 -17 -35 52 c-68 104 -173 157 -324 164 -57 2 -113 -2 -153
-11z"/>
<path d="M4675 4354 c-245 -29 -399 -93 -537 -222 -123 -115 -201 -259 -244
-447 -26 -112 -26 -363 -1 -455 72 -260 280 -457 562 -531 102 -27 368 -38
484 -19 144 23 345 101 355 139 8 29 29 351 24 357 -3 3 -33 -8 -67 -25 -127
-64 -351 -109 -480 -96 -131 13 -240 56 -315 126 -40 36 -95 124 -111 177 l-6
22 549 0 c476 0 551 2 556 15 15 40 28 200 23 282 -26 395 -238 631 -605 673
-85 10 -127 10 -187 4z m173 -378 c58 -21 100 -54 129 -103 25 -44 46 -151 36
-190 l-5 -23 -333 0 -333 0 10 38 c36 129 130 234 249 276 57 19 194 21 247 2z"/>
</g>
</svg>
