<svg xmlns="http://www.w3.org/2000/svg" viewBox="0 0 512 512"><path fill="#F26222" d="M361.22 330.833a36.3 36.3 0 0 0 11.889 1.785c17.842 0 25.868-7.027 25.868-15.424 0-9.713-13.201-9.713-14.562-18.281-1.725-10.783-.599-58.305 17.842-84.578l12.31 5.599a16.2 16.2 0 0 0 7.734 1.785 12 12 0 0 0 4.6-1.282 12 12 0 0 0 3.726-2.994 271 271 0 0 0 32.225-44.431c1.49-3.156-24.434-35.733-38.939-47.352a58.1 58.1 0 0 0-24.888-11.602 58 58 0 0 0-27.43 1.127 58.1 58.1 0 0 0-23.852 13.615 58.4 58.4 0 0 0-14.966 23.06 277.6 277.6 0 0 1-82.228 39.132c-39.716 10.491-80.793.657-108.734 2.085-35.668 1.785-57.251 28.171-56.417 58.728.834 30.556 22.175 59.198 22.175 88.326a32.2 32.2 0 0 1-2.098 12.39 31.9 31.9 0 0 1-6.706 10.621 31.8 31.8 0 0 1-22.523 9.874c-15.217 0-16.23-5.955-20.87-5.955a4.11 4.11 0 0 0-4.098 4.048c0 7.676 18.91 15.011 29.73 15.011a47.5 47.5 0 0 0 22.864-5.063 47.6 47.6 0 0 0 17.687-15.376s7.257 21.145 35.668 21.145c22.531 0 32.282-10.727 32.282-19.717 0-7.326-4.463-10.418-7.67-14.71-2.729-4-4.228-8.73-4.284-13.582 3.936.576 7.912.852 11.889.835 16.408 0 21.405-6.669 21.405-13.225 0-8.398-9.808-7.805-9.808-21.623 0-10.418 5.953-13.875 10.877-13.875s26.337 2.021 51.662 4.585c8.439.892 29.731 9.054 29.731 41.696v11.911c0 19.952 8.026 44.666 43.28 44.666 23.779 0 37.336-13.347 37.336-23.051 0-6.312-5.531-9.055-8.204-12.803a35.78 35.78 0 0 1-4.041-26.808l-.413-.292z"/><path fill="#fff" d="M419.256 187.877a4.1 4.1 0 0 0-1.741.162 4.12 4.12 0 0 0-2.551 2.272 4.2 4.2 0 0 0-.365 1.712c0 .592.122 1.168.365 1.712a4.4 4.4 0 0 0 1.028 1.412c.438.389.956.681 1.523.86.567.17 1.15.227 1.741.162a4.12 4.12 0 0 0 2.616-1.379 4.14 4.14 0 0 0 1.045-2.767 4.18 4.18 0 0 0-1.045-2.767 4.23 4.23 0 0 0-2.616-1.379m14.505-11.912c-.996 0-1.944.39-2.648 1.096a3.75 3.75 0 0 0-1.094 2.653 3.74 3.74 0 0 0 3.742 3.748 3.74 3.74 0 0 0 3.742-3.748 3.74 3.74 0 0 0-3.742-3.749m6.779-14.11c-.616 0-1.207.179-1.717.528s-.907.827-1.134 1.395a3.15 3.15 0 0 0-.178 1.794 3.12 3.12 0 0 0 2.438 2.442 3.07 3.07 0 0 0 1.789-.179 3.2 3.2 0 0 0 1.393-1.136 3 3 0 0 0 .527-1.72c0-.819-.324-1.614-.907-2.182a3.08 3.08 0 0 0-2.187-.909v-.016zm-118.964 19.709a4.5 4.5 0 0 0 3.151-1.347 4.55 4.55 0 0 0 1.295-3.172 4.54 4.54 0 0 0-1.482-2.857 4.5 4.5 0 0 0-3.004-1.144c-1.11 0-2.179.406-3.005 1.144a4.56 4.56 0 0 0-1.482 2.857c0 1.2.478 2.352 1.32 3.204a4.48 4.48 0 0 0 3.199 1.323zm17.243 108.821a4.5 4.5 0 0 0-2.527.739 4.57 4.57 0 0 0-1.693 2.02 4.47 4.47 0 0 0-.275 2.621 4.6 4.6 0 0 0 1.223 2.337 4.5 4.5 0 0 0 2.316 1.249c.875.179 1.79.089 2.616-.243a4.46 4.46 0 0 0 2.033-1.672 4.6 4.6 0 0 0 .769-2.523c0-.592-.097-1.177-.316-1.728a4.4 4.4 0 0 0-.964-1.469 4.5 4.5 0 0 0-1.457-.982 4.5 4.5 0 0 0-1.717-.34h-.008zm26.75 4.706a4.5 4.5 0 0 0-2.527.738 4.57 4.57 0 0 0-1.692 2.021 4.46 4.46 0 0 0-.276 2.62c.17.885.6 1.696 1.223 2.337a4.5 4.5 0 0 0 2.316 1.25c.875.178 1.79.089 2.624-.244a4.5 4.5 0 0 0 2.033-1.671c.494-.747.77-1.623.77-2.524 0-1.184-.47-2.336-1.296-3.172a4.5 4.5 0 0 0-3.151-1.347h-.016zm-23.009-45.623c-.891 0-1.765.259-2.51.762a4.57 4.57 0 0 0-1.669 2.029 4.44 4.44 0 0 0-.251 2.612c.17.877.608 1.688 1.231 2.321a4.5 4.5 0 0 0 2.316 1.233 4.66 4.66 0 0 0 2.616-.251 4.5 4.5 0 0 0 2.025-1.672 4.5 4.5 0 0 0 .761-2.515 4.57 4.57 0 0 0-1.32-3.205 4.5 4.5 0 0 0-3.199-1.323zm15.283-30.435a4.54 4.54 0 0 0 2.535-.738 4.54 4.54 0 0 0 1.692-2.029 4.55 4.55 0 0 0-.972-4.965 4.46 4.46 0 0 0-2.332-1.242 4.54 4.54 0 0 0-2.624.268 4.5 4.5 0 0 0-2.025 1.696 4.5 4.5 0 0 0-.737 2.54 4.55 4.55 0 0 0 1.32 3.14 4.52 4.52 0 0 0 3.135 1.322zm-70.039-18.167a4.55 4.55 0 0 0 3.199-1.323 4.5 4.5 0 0 0 1.32-3.204c0-.893-.259-1.769-.761-2.516a4.6 4.6 0 0 0-2.025-1.671 4.4 4.4 0 0 0-2.608-.252 4.56 4.56 0 0 0-2.316 1.234 4.5 4.5 0 0 0-1.231 2.32 4.7 4.7 0 0 0 .251 2.621c.34.827.923 1.533 1.668 2.028.746.495 1.62.763 2.511.763zm25.026 80.286a4.5 4.5 0 0 0-2.527.738 4.57 4.57 0 0 0-1.693 2.02 4.54 4.54 0 0 0-.275 2.621 4.6 4.6 0 0 0 1.223 2.337 4.4 4.4 0 0 0 2.316 1.249 4.57 4.57 0 0 0 2.616-.243 4.46 4.46 0 0 0 2.033-1.672 4.6 4.6 0 0 0 .769-2.523c0-1.185-.47-2.337-1.296-3.172a4.5 4.5 0 0 0-3.15-1.339h-.008zm-12.238-58.135a4.51 4.51 0 0 0 4.446-4.52 4.58 4.58 0 0 0-1.482-2.864 4.47 4.47 0 0 0-3.004-1.144c-1.11 0-2.179.406-3.005 1.144a4.56 4.56 0 0 0-1.482 2.864c0 1.201.478 2.353 1.32 3.205a4.5 4.5 0 0 0 3.199 1.323zm-28.427 25.55c-.891 0-1.765.26-2.51.763a4.57 4.57 0 0 0-1.669 2.028 4.47 4.47 0 0 0-.251 2.621 4.57 4.57 0 0 0 1.231 2.32 4.5 4.5 0 0 0 2.316 1.234c.875.17 1.782.081 2.608-.252a4.5 4.5 0 0 0 2.025-1.671 4.5 4.5 0 0 0 .761-2.516c0-1.2-.478-2.353-1.32-3.205a4.48 4.48 0 0 0-3.199-1.322zm46.617-4.755a4.54 4.54 0 0 0 3.199-1.322 4.5 4.5 0 0 0 1.32-3.205c0-.893-.259-1.769-.761-2.515a4.6 4.6 0 0 0-2.025-1.672 4.43 4.43 0 0 0-2.616-.251 4.55 4.55 0 0 0-2.316 1.233 4.5 4.5 0 0 0-1.231 2.32 4.65 4.65 0 0 0 .251 2.613c.34.828.923 1.534 1.668 2.028.746.495 1.62.763 2.511.763zm-71.342-40.325c-.891 0-1.766.26-2.511.763a4.6 4.6 0 0 0-1.668 2.028 4.45 4.45 0 0 0-.251 2.621c.17.876.607 1.688 1.231 2.321a4.5 4.5 0 0 0 2.316 1.233c.874.17 1.782.081 2.616-.252a4.47 4.47 0 0 0 2.024-1.671 4.5 4.5 0 0 0 .762-2.515 4.57 4.57 0 0 0-1.32-3.205 4.5 4.5 0 0 0-3.199-1.323m10.042 23.344a4.54 4.54 0 0 0-2.535.738 4.55 4.55 0 0 0-1.693 2.029 4.56 4.56 0 0 0-.267 2.628 4.57 4.57 0 0 0 1.239 2.337 4.54 4.54 0 0 0 4.957.974 4.5 4.5 0 0 0 2.024-1.696 4.5 4.5 0 0 0 .737-2.54 4.55 4.55 0 0 0-1.32-3.14 4.5 4.5 0 0 0-3.134-1.322zm32.873 39.189a4.5 4.5 0 0 0-2.527.738 4.57 4.57 0 0 0-1.692 2.02 4.47 4.47 0 0 0-.276 2.621c.17.885.6 1.696 1.223 2.337a4.43 4.43 0 0 0 2.317 1.249c.874.179 1.789.09 2.624-.243a4.5 4.5 0 0 0 2.032-1.671c.503-.747.77-1.623.77-2.524 0-1.184-.47-2.337-1.296-3.172a4.5 4.5 0 0 0-3.15-1.339h-.017zm46.261-63.604a4.47 4.47 0 0 0 3.15-1.306 4.5 4.5 0 0 0 1.304-3.157 4.457 4.457 0 0 0-4.454-4.462 4.45 4.45 0 0 0-3.151 1.306 4.47 4.47 0 0 0 0 6.313 4.46 4.46 0 0 0 3.151 1.306m32.881 55.685c-1.182 0-2.324.47-3.15 1.306a4.47 4.47 0 0 0-1.304 3.156 4.454 4.454 0 0 0 7.604 3.157 4.47 4.47 0 0 0 1.304-3.157c0-.592-.097-1.168-.324-1.72a4.4 4.4 0 0 0-.963-1.46 4.3 4.3 0 0 0-1.458-.966 4.5 4.5 0 0 0-1.717-.324zm11.233-36.747c-.891 0-1.765.259-2.511.762a4.6 4.6 0 0 0-1.668 2.029 4.46 4.46 0 0 0-.251 2.62 4.56 4.56 0 0 0 1.231 2.321 4.46 4.46 0 0 0 2.316 1.233 4.66 4.66 0 0 0 2.616-.251 4.4 4.4 0 0 0 2.025-1.672 4.5 4.5 0 0 0 .761-2.515 4.57 4.57 0 0 0-1.32-3.205 4.5 4.5 0 0 0-3.199-1.322m-2.916-36.926a4.5 4.5 0 0 0-3.15 1.346 4.55 4.55 0 0 0-1.296 3.173 4.54 4.54 0 0 0 1.482 2.856 4.5 4.5 0 0 0 3.005 1.144 4.51 4.51 0 0 0 4.487-4 4.57 4.57 0 0 0-1.32-3.205 4.5 4.5 0 0 0-3.199-1.323zm21.341 6.905c-.891 0-1.766.259-2.511.763a4.6 4.6 0 0 0-1.668 2.028 4.45 4.45 0 0 0-.251 2.613c.17.876.607 1.687 1.231 2.32a4.45 4.45 0 0 0 2.316 1.233 4.6 4.6 0 0 0 2.608-.251 4.5 4.5 0 0 0 2.025-1.672 4.5 4.5 0 0 0 .761-2.515 4.57 4.57 0 0 0-1.32-3.205 4.5 4.5 0 0 0-3.199-1.322h.008zm-37.336-20.788c-.899 0-1.773.268-2.518.771a4.6 4.6 0 0 0-1.669 2.037 4.54 4.54 0 0 0-.243 2.621 4.6 4.6 0 0 0 1.247 2.32 4.5 4.5 0 0 0 2.333 1.225c.883.171 1.79.073 2.616-.276a4.47 4.47 0 0 0 2.016-1.695 4.6 4.6 0 0 0 .737-2.532 4.51 4.51 0 0 0-4.511-4.454zm-8.803-16.965a4.5 4.5 0 0 0-2.527.739 4.57 4.57 0 0 0-1.693 2.02 4.47 4.47 0 0 0-.275 2.621c.17.884.599 1.695 1.223 2.336a4.5 4.5 0 0 0 2.316 1.25c.875.178 1.79.089 2.616-.243a4.4 4.4 0 0 0 2.033-1.672 4.534 4.534 0 0 0-.526-5.696 4.5 4.5 0 0 0-3.151-1.339h-.008zm18.619 0a4.5 4.5 0 0 0-2.527.739 4.56 4.56 0 0 0-1.692 2.02 4.47 4.47 0 0 0-.276 2.621c.17.884.6 1.695 1.223 2.336a4.5 4.5 0 0 0 2.316 1.25 4.6 4.6 0 0 0 2.624-.243 4.36 4.36 0 0 0 2.033-1.672c.502-.746.77-1.623.77-2.523 0-1.185-.47-2.337-1.296-3.173a4.5 4.5 0 0 0-3.151-1.339h-.016zm-21.227-12.277c0-.746.219-1.476.64-2.085a3.77 3.77 0 0 1 1.693-1.387 3.8 3.8 0 0 1 2.17-.203 3.76 3.76 0 0 1 2.932 2.986 3.75 3.75 0 0 1-1.644 3.838 3.726 3.726 0 0 1-4.706-.512 3.77 3.77 0 0 1-1.077-2.637zm11.12-13.696a2.86 2.86 0 0 1 .955-1.752 2.82 2.82 0 0 1 1.863-.698c.68 0 1.344.243 1.863.698s.858 1.071.955 1.752c.057.406.033.82-.081 1.209a2.7 2.7 0 0 1-.583 1.063 2.86 2.86 0 0 1-2.154.99 2.8 2.8 0 0 1-1.182-.26 2.8 2.8 0 0 1-.972-.73 2.8 2.8 0 0 1-.583-1.063 2.8 2.8 0 0 1-.081-1.209m14.448-6.434a2.57 2.57 0 0 1 .753-1.753 2.56 2.56 0 0 1 1.75-.754 2.49 2.49 0 0 1 2.494 2.499 2.49 2.49 0 0 1-2.494 2.499c-.664 0-1.296-.26-1.766-.731a2.5 2.5 0 0 1-.737-1.768zm61.705 30.97c0-.446.13-.884.381-1.257a2.3 2.3 0 0 1 1.012-.836c.413-.17.867-.211 1.304-.13.437.089.842.3 1.158.625.316.324.535.722.624 1.16s.04.893-.13 1.306-.462.771-.834 1.015a2.3 2.3 0 0 1-1.255.381c-.6 0-1.175-.235-1.596-.665a2.27 2.27 0 0 1-.664-1.599m-3.207 45.032a2.5 2.5 0 0 1 .146-.966c.113-.308.275-.6.51-.835.219-.244.494-.438.785-.585.292-.137.624-.219.948-.235a2.507 2.507 0 0 1 2.503 2.499c0 .666-.26 1.298-.737 1.769a2.5 2.5 0 0 1-1.766.738 2.57 2.57 0 0 1-1.733-.706 2.6 2.6 0 0 1-.826-1.679h.178zm6.358-8.698a2.5 2.5 0 0 1 .137-.941 2.4 2.4 0 0 1 .494-.82c.219-.235.478-.43.77-.568.283-.138.607-.211.923-.227.648 0 1.263.251 1.725.714a2.43 2.43 0 0 1 .713 1.728 2.43 2.43 0 0 1-.713 1.728 2.42 2.42 0 0 1-1.725.714 2.5 2.5 0 0 1-.94-.138 2.3 2.3 0 0 1-.818-.495 2.43 2.43 0 0 1-.793-1.695h.235zm-13.08 17.274a2.5 2.5 0 0 1 .138-.941c.105-.301.275-.585.494-.82a2.5 2.5 0 0 1 .769-.568 2.47 2.47 0 0 1 1.863-.089c.299.105.583.268.818.495a2.44 2.44 0 0 1 .793 1.696c.017.324-.032.657-.145.957-.114.3-.284.592-.511.828-.226.235-.494.43-.785.568a2.4 2.4 0 0 1-.94.211 2.44 2.44 0 0 1-1.725-.658 2.42 2.42 0 0 1-.777-1.671h.008zm-7.613 8.041c0-.649.251-1.266.713-1.728a2.42 2.42 0 0 1 1.725-.714 2.434 2.434 0 0 1 2.437 2.442 2.434 2.434 0 0 1-2.437 2.442 2.42 2.42 0 0 1-1.725-.714 2.43 2.43 0 0 1-.713-1.728m26.524-33.948a2.438 2.438 0 1 1 4.875 0 2.44 2.44 0 0 1-.656 1.785c-.227.235-.494.43-.785.568a2.4 2.4 0 0 1-.94.211 2.4 2.4 0 0 1-.931-.138 2.3 2.3 0 0 1-.81-.495 2.5 2.5 0 0 1-.551-.771 2.4 2.4 0 0 1-.21-.925v-.235zm4.519-7.57a2.36 2.36 0 0 1 .615-1.777c.227-.236.486-.43.778-.568.291-.13.615-.203.931-.211a2.3 2.3 0 0 1 1.757.616c.235.228.422.487.551.779s.195.617.186.933c.057.349.033.706-.064 1.047a2.45 2.45 0 0 1-1.329 1.558 2.45 2.45 0 0 1-1.02.219c-.348 0-.705-.073-1.02-.219a2.36 2.36 0 0 1-.835-.633 2.5 2.5 0 0 1-.494-.925 2.5 2.5 0 0 1-.064-1.047v.236h.008zM170.987 362.216s-16.465-28.406-5.119-57.591c12.602-32.22 48.634-28.058 48.634-28.058a41.6 41.6 0 0 0-19.025-3.691c-25.033.949-44.47 23.822-43.401 51.157.202 7.351 2 14.58 5.272 21.169a50.95 50.95 0 0 0 13.639 17.014m-60.644-90.59a39 39 0 0 1-8.447-12.682 39.1 39.1 0 0 1-2.965-14.953 39.92 39.92 0 0 1 11.663-27.392 39.76 39.76 0 0 1 27.341-11.684c22.175-1.185 62.896 5.477 88.82 2.085 8.804 40.447 38.526 68.432 60.992 86.42-26.758-11.911-53.509-43.66-84.6-60.934-32.403-17.875-64.928-20.674-81.976-4.942-14.683 13.518-13.558 32.699-10.82 44.082zm91.735 40.496c2.017 11.619-18.789 15.254-18.789 15.254 18.91 3.4 25.325-6.67 25.325-6.67-1.183-1.493-6.536-8.576-6.536-8.576zm150.881 6.199s-12.31 17.566-3.863 49.502a55.46 55.46 0 0 1-21.932 11.132s28.533 3.748 37.514-11.497c-17.299-13.404-11.889-46.752-11.889-49.015l.178-.122zm57.073-182.908a17.36 17.36 0 0 0-14.805 1.038 17.2 17.2 0 0 0-5.653 5.104 17.3 17.3 0 0 0-2.932 7.035 17.6 17.6 0 0 0 .34 7.61 17.4 17.4 0 0 0 3.564 6.735 17.35 17.35 0 0 0 13.541 6.077c11.112 1.963 21.527-3.87 23.187-13.104a19.1 19.1 0 0 0-4.357-13.736 19.02 19.02 0 0 0-12.707-6.751h-.178.008zm13.922 19.708a14.8 14.8 0 0 1-2.705 8.487 14.8 14.8 0 0 1-7.095 5.388 14.74 14.74 0 0 1-8.893.316 14.74 14.74 0 0 1-7.45-4.868 14.8 14.8 0 0 1-3.305-8.276 14.86 14.86 0 0 1 2.049-8.674 14.83 14.83 0 0 1 6.657-5.915 14.7 14.7 0 0 1 8.844-.99 13.4 13.4 0 0 1 8.893 4.844 13.5 13.5 0 0 1 2.996 9.688zm-14.927-2.978a7.5 7.5 0 0 1 3.483-4.471 7.4 7.4 0 0 1 5.612-.714 6.8 6.8 0 0 1 2.843.674 6.77 6.77 0 0 1 3.62 4.422 6.8 6.8 0 0 1-1.045 5.622 6.9 6.9 0 0 1-2.162 1.964 6.7 6.7 0 0 1-2.794.868 6.8 6.8 0 0 1-2.899-.389 7.1 7.1 0 0 1-2.754-.804 7.15 7.15 0 0 1-2.227-1.801 7.4 7.4 0 0 1-1.377-2.523 7.4 7.4 0 0 1-.292-2.856zm-23.3 150.397c6.843 12.746-15.104 17.452-15.104 17.452 15.217 2.564 23.778-6.669 23.778-10.718a36.6 36.6 0 0 1-8.496-6.726h-.178zM251.78 261.436a108 108 0 0 0 7.662 8.219 177.5 177.5 0 0 0 18.967 16.26 168.4 168.4 0 0 0 21.163 13.404c2.972 1.672 5.531 2.856 7.37 3.692l2.85 1.371-2.907-1.249c-1.847-.714-4.519-1.85-7.605-3.335a164 164 0 0 1-21.818-12.512 177 177 0 0 1-19.972-15.489c-5.175-4.649-8.317-8.097-8.317-8.097a1.73 1.73 0 0 1-.511-1.217c0-.455.179-.901.511-1.217a1.78 1.78 0 0 1 1.214-.487c.446 0 .891.17 1.215.487l.178.178h-.008zm179.956-115.897a32.15 32.15 0 0 0-11.136-11.53 32.1 32.1 0 0 0-30.969-1.453 32.2 32.2 0 0 0-12.165 10.419 5.25 5.25 0 0 1-3.466 1.639 5.2 5.2 0 0 1-3.645-1.169 5.23 5.23 0 0 1-1.87-3.351 5.23 5.23 0 0 1 .907-3.732 38.1 38.1 0 0 1 12.788-9.282 38.1 38.1 0 0 1 15.452-3.286 37.16 37.16 0 0 1 20.263 5.817 37.2 37.2 0 0 1 13.858 15.919h-.017zm-35.011 66.167a75.4 75.4 0 0 1-40.008-16.146 82.5 82.5 0 0 1-24.977-28.293 3.4 3.4 0 0 1-.34-2.613 3.44 3.44 0 0 1 1.595-2.093 3.5 3.5 0 0 1 1.256-.462 3.35 3.35 0 0 1 2.543.649c.356.275.664.616.891 1.006a93.2 93.2 0 0 0 23.778 30.369 80.4 80.4 0 0 0 35.667 17.567h-.413zm-15.339 31.627a105.4 105.4 0 0 1-48.569-18.856 105.6 105.6 0 0 1-33.658-39.814 3.53 3.53 0 0 1-.268-2.629 3.48 3.48 0 0 1 1.636-2.069 3.4 3.4 0 0 1 1.288-.406 3.6 3.6 0 0 1 1.344.114c.43.13.843.341 1.199.624.348.284.648.641.867 1.039a115.8 115.8 0 0 0 23.13 34.605 92.33 92.33 0 0 0 53.039 27.4h-.008zm-116.113-47.108a3.46 3.46 0 0 1 2.608.179 3.42 3.42 0 0 1 1.733 1.963 125.1 125.1 0 0 0 30.5 48.959 112.87 112.87 0 0 0 74.258 33.355 113.1 113.1 0 0 1-43.66-8.714 113.6 113.6 0 0 1-36.955-24.877 131.9 131.9 0 0 1-30.622-46.459 3.4 3.4 0 0 1-.202-1.339c.024-.454.137-.908.332-1.314.194-.406.486-.779.826-1.079.34-.301.753-.528 1.182-.674m121.345-26.694a37.97 37.97 0 0 0 19.915 5.963 24.22 24.22 0 0 0 16.732-5.006 24.38 24.38 0 0 0 9.071-14.946 27.82 27.82 0 0 1-9.233 18.029 27.7 27.7 0 0 1-19 6.937 38.23 38.23 0 0 1-20.636-4.941 3.43 3.43 0 0 1-1.7-2.012 3.48 3.48 0 0 1 .21-2.629c.187-.414.47-.795.802-1.103a3.3 3.3 0 0 1 1.166-.698 3.4 3.4 0 0 1 2.657.187v.235z"/></svg>