<svg xmlns="http://www.w3.org/2000/svg" viewBox="0 0 512 512"><path fill="#8A8C8E" d="m443.149 407.479-18.157-9.082c-3.705-2.016-7.394-4.031-11.099-6.39C446.512 354.34 464 306.93 464 256.492 464 141.483 370.511 48 255.502 48c-25.894 0-51.11 4.708-74.654 13.79v37.668c23.201-11.098 48.76-16.818 74.654-16.818 95.84 0 173.529 78.011 173.529 173.517 0 41.021-14.126 80.027-40.02 110.97-2.35-3.705-4.708-7.393-6.724-11.44l-9.083-18.157c-4.709-9.408-19.169-6.055-19.169 4.366v73.98c0 5.377 4.366 10.086 10.086 10.086h73.985c11.099.334 14.461-13.791 5.043-18.499h.009z"/><path fill="url(#paint0_radial_1003_26999)" d="M255.159 117.94c-27.24 0-52.799 8.071-74.319 21.527v30.6c0 19.169-15.13 33.963-34.299 33.963-6.39 0-12.78-1.681-17.823-5.043-8.071 17.487-12.78 37.333-12.78 57.839 0 76.673 62.217 138.886 139.221 138.886 27.575 0 53.469-8.07 75.332-22.187v-31.27c0-19.168 15.13-33.963 34.299-33.963 6.39 0 12.445 1.681 17.823 5.043 7.737-17.144 12.103-36.321 12.103-56.492 0-76.673-62.552-138.886-139.557-138.886z"/><path fill="#016394" d="M255.837 430.001c-95.84 0-173.53-78.011-173.53-173.518 0-3.704 0-7.393.335-11.097 0-1.012 0-2.016.335-3.028.334-3.027.677-5.72 1.012-8.748 0-.677.334-1.338.334-2.35 3.363-23.199 11.442-45.06 23.201-64.563v-.334c4.366-7.393 9.752-14.46 15.13-21.184 2.35 3.705 4.709 7.393 6.725 11.098l9.082 18.156c4.709 9.409 19.17 6.055 19.17-4.366v-73.98c0-5.377-4.366-10.086-10.087-10.086H73.567c-10.763 0-14.126 14.46-4.365 19.169l18.157 9.082c4.032 2.015 7.736 4.031 11.099 6.724-11.768 13.791-21.863 28.919-29.6 45.403v.335c-4.03 8.747-7.736 17.487-10.763 26.904-.335 1.011-.678 2.015-1.012 3.362-1.012 3.704-2.016 7.393-3.028 11.097-.334 1.012-.334 2.016-.677 2.693-1.012 4.366-2.016 9.082-2.693 13.456-.335 1.012-.335 2.35-.335 3.362-.677 3.705-1.012 7.059-1.338 10.763 0 1.339-.335 2.693-.335 4.032-.334 4.708-.677 9.408-.677 14.125C48 371.517 141.489 465 256.506 465c26.228 0 51.453-5.043 74.654-13.791v-38.336c-23.201 10.763-48.76 17.144-75.331 17.144v-.024z"/><defs><radialGradient id="paint0_radial_1003_26999" cx="0" cy="0" r="1" gradientTransform="matrix(193.89 0 0 193.877 239.079 217.625)" gradientUnits="userSpaceOnUse"><stop stop-color="#fff"/><stop offset=".28" stop-color="#8EC0DA"/><stop offset=".47" stop-color="#4899C4"/><stop offset=".58" stop-color="#2A82B0"/><stop offset=".76" stop-color="#046B9B"/><stop offset=".85" stop-color="#016394"/></radialGradient></defs></svg>