<svg xmlns="http://www.w3.org/2000/svg" viewBox="0 0 512 512"><path fill="#3C3A3A" d="M362.365 272.562c0 3.385-3.025 4.569-4.828 4.569-1.802 0-4.827-1.536-4.827-4.569v-37.884c0-3.531 3.025-4.595 4.827-4.595s4.828 1.151 4.828 4.595zm20.801-56.282c-4.922 0-9.327 1.552-12.816 4.188-3.485-2.636-7.89-4.188-12.813-4.188-11.86 0-20.801 8.899-20.801 20.699v33.281c0 11.801 8.941 20.699 20.801 20.699s20.802-8.898 20.802-20.699v-35.582c0-3.444 3.025-4.595 4.827-4.595s4.828 1.06 4.828 4.595v56.141h15.978v-53.84c0-11.8-8.941-20.699-20.801-20.699M94.855 253.41v-14.991c0-13.398-8.482-22.243-22.37-22.243s-22.37 8.845-22.37 22.243v21.171c0 21.021 17.74 31.257 39.037 31.257v-13.808c-12.833 0-23.063-4.913-23.063-17.449v-23.477c0-3.559 2.18-6.444 6.392-6.444s6.392 2.885 6.392 6.444v17.297zm209.593-11.779c-2.824.372-5.804 1.461-8.678 3.112v-1.829c0-9.487 7.558-13.646 15.444-12.537v-14.039c-18.191-.882-31.557 9.739-31.557 26.787v47.702h16.117v-21.705c0-9.983 2.689-13.137 6.392-13.961 2.89-.645 6.392 1.585 6.392 7.554v28.116h15.977v-31.552c0-14.449-9.331-19.055-20.087-17.64m-181.801-5.526c0-3.56 2.18-6.444 6.392-6.444s6.392 2.884 6.392 6.444v54.717h15.977v-52.416c0-13.398-8.481-22.243-22.369-22.243s-22.37 8.85-22.37 22.243v52.416h15.978zm310.493 0c0-3.56 2.18-6.444 6.392-6.444s6.392 2.884 6.392 6.444v54.717h15.977v-52.416c0-13.398-8.481-22.243-22.369-22.243s-22.37 8.85-22.37 22.243v52.416h15.978zm-188.542-19.845c-13.888 0-21.828 8.845-21.828 22.242v7.045h15.978v-9.346c0-3.559 1.638-6.444 5.85-6.444s5.993 2.885 5.993 6.444v34.631c0 3.56-2.179 6.444-6.391 6.444s-6.392-2.884-6.392-6.444v-11.506H221.83v9.201c0 13.397 8.482 22.242 22.37 22.242s22.369-8.845 22.369-22.242V238.51c0-13.397-7.939-22.242-21.967-22.242"/><path fill="#EE3124" d="M200.725 242.901c3.037-3.1 4.84-7.086 4.84-11.187 0-8.816-4.914-14.168-16.852-14.168h-2.952c-.755 0-1.416 0-1.995-.07a2.68 2.68 0 0 1-2.316-1.478h-14.319s1.137 4.383 4.097 7.599 6.524 6.366 14.533 6.602h.669c4.019 0 5.136 1.846 5.189 3.783.058 2.144-1.56 4.408-5.148 4.408-.111.004-.213 0-.324 0-15.654 0-23.839 11.92-23.839 23.696v3.969h15.977v-6.271c0-7.222 6.548-7.591 7.866-7.591s7.861.365 7.861 7.591v9.64c0 7.222-6.547 7.616-7.861 7.616v13.782c15.649 0 23.839-11.92 23.839-23.695v-5.037c0-7.297-3.149-14.648-9.265-19.184"/></svg>