<svg xmlns="http://www.w3.org/2000/svg" viewBox="0 0 512 512"><path fill="#25E8FF" d="M95.495 195.007h302.718c3.487 0 6.566 1.438 8.309 4.214l30.687 49.848c2.356 3.907 1.949 8.63-1.437 12.537l-43.203 49.847c-2.358 2.669-5.438 4.315-8.931 4.315H81.828c-6.052 0-10.467-4.73-9.752-10.691l11.402-99.386c.721-6.062 5.951-10.691 12.01-10.691z"/><path fill="#000" d="m278.964 281.151 4.756-37.885c3.206-2.175 6.82-3.934 9.926-3.934 4.027 0 5.991 3.004 5.377 8.175l-4.135 33.644h14.575l4.549-36.748.1-1.037c3.206-2.174 6.927-4.034 10.026-4.034 4.028 0 5.992 3.004 5.377 8.175l-4.135 33.644h14.575l4.549-36.748c1.243-10.249-4.035-16.457-13.433-16.457-6.512 0-13.439 3.726-18.088 7.145-1.964-4.556-6.305-7.145-12.404-7.145-6.098 0-11.99 3.004-16.639 6.108l.621-4.656h-13.639l-6.513 51.76h14.575zm86.18-30.64c1.45-6.83 6.406-10.871 12.504-10.871 6.099 0 9.405 3.418 9.405 8.904 0 .622 0 1.345-.1 1.967zm-15.296 6.938c-.207 12.938 9.198 24.947 28.421 24.947 6.82 0 12.611-1.345 17.775-4.556l1.035-12.216c-4.235 2.589-10.647 4.349-16.225 4.349-7.34 0-13.953-3.212-15.81-10.665h35.762c.515-1.344.929-4.555.929-7.66 0-13.661-7.548-23.602-23.052-23.602s-28.628 9.212-28.835 29.396zm-177.443 8.59c0-5.593 6.512-7.66 13.225-7.66h6.82l-1.035 8.382c-2.892 2.275-8.062 4.656-12.404 4.656-3.928 0-6.613-2.174-6.613-5.385zm-14.575 1.143c-.107 8.383 6.72 15.22 17.153 15.22 7.341 0 12.711-3.104 15.811-6.522l-.621 5.278h14.053l3.414-28.051c1.656-13.868-2.893-25.155-20.674-25.155-7.234 0-16.018 1.66-20.773 4.764l-1.45 11.594c3.828-2.074 11.269-4.597 18.089-4.597 8.162 0 11.061 4.081 10.747 8.43h-8.683c-12.612 0-26.979 4.863-27.079 19.046zm-40.412 1.345 3.207-25.462c3.099-2.482 6.613-3.519 9.712-3.418 6.198.1 9.612 5.071 9.612 12.838 0 10.041-5.27 18.631-14.161 18.631-2.792 0-5.992-.93-8.37-2.589M99.33 298.238h14.468l2.378-19.562c2.271 1.759 6.513 3.726 11.883 3.726 16.746 0 26.979-14.804 26.979-30.947 0-13.769-6.513-23.395-18.71-23.395-5.791 0-11.061 1.859-15.089 5.177l.515-3.826H107.7l-8.37 68.84zm152.141-68.84-15.71 35.818-8.163-35.818h-16.124l14.367 51.86-8.369 16.98h15.917l33.799-68.84h-15.717"/></svg>