<svg xmlns="http://www.w3.org/2000/svg" viewBox="0 0 512 512"><path fill="#14A2DD" d="M232.339 276.163c1.686 17.047 2.525 26.086-11.362 40.818-14.516 15.362-50.917 43.552-88.166 65.017-15.781 9.048-37.03 19.99-53.022 25.877-11.991 4.209-21.886 6.104-26.934-2.524-3.153-5.685-1.686-10.733 0-15.152 13.048-35.133 50.288-100.779 74.698-143.492 2.524-4.209 5.049-8.838 7.573-13.257 37.458-64.597 87.117-143.701 97.004-156.539 1.266-1.685 4-3.79 6.314-2.524 1.895 1.049 1.895 3.363 1.685 5.048 0 .21-.629 2.524-.838 3.58-16.201 65.227-14.306 129.188-6.943 193.148zm54.708 19.982c-15.782-7.152-23.991-10.942-29.668-30.295-6.105-20.199-12.201-65.856-12.201-108.778 0-18.095 1.048-42.084 3.999-58.913 2.315-12.41 5.686-22.095 15.782-22.095 6.314 0 9.887 4 13.048 7.782 23.991 28.618 62.07 93.836 86.9 136.13 2.524 4.419 5.048 8.838 7.572 13.466 37.24 64.808 81.013 147.282 87.109 162.007.839 2.104 1.476 5.467-.838 6.942-2.105 1.049-4-.209-5.258-1.048-.21-.21-1.895-1.895-2.734-2.524-48.393-46.712-104.786-77.217-163.703-102.674zm-44.813 37.456c14.096-10.096 21.459-15.361 41.24-10.733 20.411 5.048 62.917 22.514 100.367 43.971 15.572 9.048 35.773 21.885 48.821 32.819 9.677 8.209 16.201 15.99 11.362 24.618-3.362 5.685-8.419 6.733-13.257 7.572-36.821 6.314-112.367 6.733-161.389 7.153h-15.572c-74.698-.21-167.912-3.581-183.904-5.685-2.314-.42-5.467-1.476-5.257-4.21 0-2.314 1.895-3.362 3.362-3.999.42-.21 2.524-.839 3.58-1.048 64.595-18.724 119.093-52.18 170.647-90.474z"/></svg>