<svg width="256" height="256" viewBox="0 0 256 256" fill="none" xmlns="http://www.w3.org/2000/svg"><path d="M166.308 45.2645C165.71 45.9911 164.429 47.2326 164.807 48.3014C165.186 49.3617 167.511 49.1161 168.492 49.5988C170.168 50.4287 170.843 52.0937 170.791 53.862C170.73 55.9199 170.707 75.659 170.628 102.857C146.408 102.718 122.192 102.576 97.9731 102.434C97.5019 96.4871 97.3442 89.8188 97.7743 82.5627C98.1702 75.8741 99.0356 69.2142 100.358 62.6441C100.938 59.7681 101.604 56.9091 102.357 54.0721C103.183 50.9522 105.456 47.1243 105.215 43.8621C105.184 43.4251 105.079 42.9762 104.8 42.6341C104.149 41.838 102.901 41.9684 101.897 42.2225C95.73 43.7875 89.7341 47.0395 85.0097 51.2485C83.5583 52.5425 79.67 56.1909 76.1469 62.4274C66.8231 78.9313 66.0931 102.303 66.0931 102.303C65.6219 117.417 65.0187 148.04 81.3066 179.835C81.3066 179.835 92.7226 202.123 109.046 207.614C112.271 208.702 113.147 207.982 113.425 207.628C114.698 206.017 111.968 203.243 111.161 202.013C109.674 199.738 108.402 197.33 107.307 194.85C105.042 189.72 103.542 184.288 102.423 178.812C99.0133 162.144 96.8079 145.277 97.2791 128.257H170.628V192.232C170.628 196.473 172.378 200.546 176.337 202.538C178.72 203.739 181.417 204.164 184.073 204.488C188.723 205.059 193.466 205.377 198.063 204.503C200.755 203.993 203.441 203.031 205.449 201.19C208.683 198.219 208.732 194.202 208.732 190.155C208.732 158.023 209.037 125.889 208.996 93.7568C208.986 85.786 208.931 77.8168 208.833 69.8477C208.701 59.028 205.3 48.1287 195.632 42.0582C191.456 39.4363 186.671 38 181.993 38C176.126 38 170.428 40.2578 166.308 45.2645Z" fill="url(#paint0_linear_13_53)"/><path d="M52.6336 83.8155C43.1004 95.2424 42.3479 108.582 41.8852 121.844C40.8022 152.974 52.1336 175.122 54.6725 179.885C60.3738 190.576 66.5632 197.616 68.3918 199.644C74.9067 206.867 81.4469 211.888 86.4635 215.213C82.4858 214.234 76.8506 212.373 70.8289 208.654C65.2548 205.21 61.2771 201.364 58.662 198.418C54.886 193.576 52.2302 189.315 50.4863 186.282C45.8324 178.192 40.0328 168.109 37.0771 154.595C36.2449 150.8 35.6856 146.943 34.1976 146.79C32.0486 146.571 29.6199 154.254 29.0962 155.911C27.3998 161.27 26.971 166.209 27.0015 168.834C27.1252 179.025 34.7416 198.867 52.9726 212.325C52.9726 212.325 68.9071 224.09 96.1594 224.996C97.2712 225.033 103.874 224.877 108.769 221.362C111.177 219.635 112.77 216.985 108.494 215.731C79.2165 207.141 67.797 176.045 61.5448 149.07C60.1822 143.192 58.8841 137.401 58.1095 131.393C55.7724 113.259 55.8707 93.315 61.7364 75.8202C57.2689 76.8264 55.2453 80.683 52.6336 83.8155Z" fill="url(#paint1_linear_13_53)"/><defs><linearGradient id="paint0_linear_13_53" x1="173.724" y1="141.703" x2="57.2627" y2="52.5365" gradientUnits="userSpaceOnUse"><stop stop-color="#9F8326"/><stop offset="0.329003" stop-color="#9F8326"/><stop offset="0.330336" stop-color="#9F8326"/><stop offset="0.560566" stop-color="#FFE7A8"/><stop offset="0.627021" stop-color="#FFE7A8"/><stop offset="0.787549" stop-color="#B6A149"/><stop offset="1" stop-color="#B6A149"/></linearGradient><linearGradient id="paint1_linear_13_53" x1="129.763" y1="199.03" x2="13.347" y2="111.185" gradientUnits="userSpaceOnUse"><stop stop-color="#9F8326"/><stop offset="0.329003" stop-color="#9F8326"/><stop offset="0.330336" stop-color="#9F8326"/><stop offset="0.560566" stop-color="#FFE7A8"/><stop offset="0.627021" stop-color="#FFE7A8"/><stop offset="0.787549" stop-color="#B6A149"/><stop offset="1" stop-color="#B6A149"/></linearGradient></defs></svg>