<svg xmlns="http://www.w3.org/2000/svg" viewBox="0 0 256 256"><path fill="#0E397A" d="M69.396 196.513C56.468 182.905 50 161.536 50 134.132V42.909C50 40.76 51.766 39 53.924 39H99.25c2.158 0 3.923 1.759 3.923 3.91v94.046c0 8.888 1.277 19.081 6.701 26.448 8.431 11.451 26.822 11.451 35.253 0 5.424-7.367 6.701-17.56 6.701-26.448v-16.364H205v13.54c0 27.404-6.468 48.773-19.396 62.381-25.947 27.316-90.26 27.316-116.207 0"/><path fill="#0E397A" d="M151.826 110.277V43.094c0-2.251 1.849-4.094 4.11-4.094h7.417c.016 22.935 18.609 41.525 41.633 41.525h.012v29.752z"/><path fill="#FF6620" d="M173.732 39h27.158c2.261 0 4.11 1.843 4.11 4.094v27.093c-17.269 0-31.269-13.948-31.269-31.153z"/></svg>