<svg viewBox="0 0 84 40" xmlns="http://www.w3.org/2000/svg"><path d="M33.7355 3.05627C40.068 3.05627 46.4006 3.07854 52.7328 3.04177C54.4715 3.03163 56.211 3.02216 57.95 3.00011C58.0984 2.99826 58.2453 3.0195 58.3927 3.03237C59.0997 3.09407 59.2834 3.65762 59.4257 4.25164C60.9213 10.498 60.4463 17.1507 57.7892 23.0263C57.081 24.5923 56.2156 26.0676 55.259 27.4902C54.5074 28.6078 53.6883 29.6755 52.7924 30.6861C52.124 31.44 51.4213 32.1601 50.6761 32.8327C49.2734 34.0986 47.7842 35.2535 46.0486 36.0467C45.1282 36.4674 44.1627 36.7311 43.1584 36.8719C42.1567 37.0124 41.1512 37.0109 40.1462 36.9892C34.5941 36.8691 29.0416 36.9625 23.4893 36.9377C20.6151 36.9247 17.7409 36.9344 14.8666 36.938C14.5664 36.9383 14.2699 36.914 13.9868 36.8221C13.3977 36.6309 13.0407 36.1164 13.0071 35.4333C12.9976 35.2395 13.0004 35.0451 13.0004 34.8509C13.0001 24.9157 13 14.9804 13.001 5.0452C13.001 4.7608 13.0066 4.47914 13.0626 4.19467C13.1969 3.51312 13.7401 3.10717 14.4291 3.06552C14.6688 3.05101 14.9099 3.0576 15.1503 3.0576C21.3454 3.05723 27.5405 3.0573 33.7355 3.05627Z" fill="#233445"/><path d="M60.6442 3.45334C60.6633 3.55359 60.7038 3.64977 60.733 3.74817C61.219 5.38264 61.5348 7.06646 61.6851 8.76456C62.1538 14.065 60.9527 19.4242 58.5621 24.1592C55.8111 29.6081 51.5901 34.0704 46.0123 36.6279C45.9049 36.6772 45.7172 36.6561 45.7514 36.8294C45.7834 36.9922 45.9594 36.9316 46.0747 36.9316C49.7513 36.9329 53.4277 36.9368 57.104 36.9222C61.0932 36.9063 65.9163 34.8949 68.1993 31.5245C69.3593 29.8119 69.571 27.8682 68.7485 25.973C68.7263 25.9218 68.699 25.8696 68.634 25.8684C68.5789 25.88 68.5574 25.9219 68.5362 25.9619C68.1837 26.6277 67.8222 27.2875 67.4193 27.9254C65.7818 30.5185 63.4223 32.7094 60.4607 33.6797C59.3528 34.0428 58.3756 34.1657 57.6682 34.2049C57.8285 34.1508 57.9899 34.0958 58.1517 34.0418C59.0092 33.7552 59.8424 33.4201 60.6442 32.993C60.7663 32.928 60.8872 32.8605 61.0069 32.791C66.1989 29.7759 69.4333 23.5414 69.9434 17.7006C70.1588 15.2331 69.8219 11.8947 67.833 10.137C67.6671 9.99041 67.4831 9.89075 67.2789 9.83127C67.2105 9.91546 67.2307 9.9984 67.2283 10.0763C67.2124 10.6 67.2091 11.1231 67.1789 11.6475C66.8819 16.7992 65.3688 21.7936 62.7986 26.2445C62.0859 27.4786 61.2501 28.6108 60.1264 29.5063C59.8624 29.7167 59.5823 29.9134 59.2372 30.0067C59.3027 29.9141 59.3652 29.8192 59.4342 29.7292C59.6907 29.3943 59.9658 29.0723 60.2038 28.7248C62.4376 25.4654 63.9869 21.7207 64.9044 17.8882C65.6093 14.9438 66.2026 11.61 65.6222 8.60009C65.3124 6.99314 64.7965 5.0813 63.4531 4.02687C62.7432 3.46954 61.9463 3.13594 61.0435 3.0479C60.9956 3.04324 60.9523 3.04073 60.9132 3.04073C60.6573 3.04073 60.5862 3.148 60.6442 3.45334Z" fill="url(#paint0_linear_13_39)"/><path d="M25.6055 16.2942C25.5796 16.326 25.5241 16.3802 25.5405 16.4269C25.5569 16.4732 25.6576 16.4625 25.7 16.4836C25.7725 16.5198 25.8018 16.5925 25.7995 16.6698C25.7969 16.7597 25.7959 17.6219 25.7925 18.8099C24.7439 18.8039 23.6955 18.7977 22.647 18.7914C22.6266 18.5317 22.6198 18.2404 22.6384 17.9235C22.6556 17.6313 22.693 17.3404 22.7503 17.0534C22.7754 16.9278 22.8042 16.8029 22.8368 16.679C22.8726 16.5427 22.971 16.3755 22.9605 16.233C22.9592 16.2139 22.9547 16.1943 22.9426 16.1793C22.9144 16.1446 22.8604 16.1503 22.8169 16.1614C22.5499 16.2297 22.2903 16.3718 22.0858 16.5556C22.023 16.6121 21.8546 16.7715 21.7021 17.0439C21.2984 17.7648 21.2668 18.7857 21.2668 18.7857C21.2464 19.4459 21.2203 20.7836 21.9255 22.1724C21.9255 22.1724 22.4197 23.146 23.1264 23.3858C23.266 23.4333 23.304 23.4019 23.316 23.3864C23.3711 23.3161 23.2529 23.1949 23.218 23.1412C23.1536 23.0418 23.0985 22.9366 23.0511 22.8283C22.953 22.6042 22.8881 22.3669 22.8397 22.1277C22.6921 21.3996 22.5966 20.6629 22.617 19.9194H25.7925V22.7139C25.7925 22.8992 25.8682 23.0771 26.0396 23.1641C26.1428 23.2165 26.2596 23.2351 26.3746 23.2492C26.5758 23.2742 26.7812 23.2881 26.9802 23.2499C27.0968 23.2276 27.213 23.1856 27.3 23.1052C27.44 22.9754 27.4421 22.7999 27.4421 22.6232C27.4421 21.2196 27.4553 19.816 27.4536 18.4124C27.4531 18.0643 27.4507 17.7162 27.4465 17.3681C27.4408 16.8954 27.2935 16.4193 26.875 16.1542C26.6942 16.0397 26.487 15.9769 26.2845 15.9769C26.0305 15.9769 25.7838 16.0755 25.6055 16.2942Z" fill="url(#paint1_linear_13_39)"/><path d="M20.6508 17.9948C20.2335 18.4922 20.2006 19.0729 20.1803 19.6502C20.1329 21.0052 20.6289 21.9693 20.74 22.1766C20.9896 22.642 21.2605 22.9484 21.3406 23.0367C21.6258 23.3511 21.9121 23.5697 22.1317 23.7144C21.9575 23.6718 21.7109 23.5908 21.4473 23.4289C21.2033 23.279 21.0292 23.1116 20.9147 22.9833C20.7494 22.7726 20.6331 22.5871 20.5568 22.4551C20.3531 22.1029 20.0992 21.664 19.9698 21.0758C19.9334 20.9106 19.9089 20.7427 19.8438 20.7361C19.7497 20.7265 19.6434 21.0609 19.6205 21.1331C19.5462 21.3663 19.5274 21.5813 19.5288 21.6956C19.5342 22.1392 19.8676 23.0029 20.6656 23.5887C20.6656 23.5887 21.3631 24.1008 22.5561 24.1402C22.6047 24.1419 22.8938 24.1351 23.108 23.9821C23.2135 23.9069 23.2832 23.7915 23.096 23.7369C21.8144 23.363 21.3145 22.0095 21.0409 20.8353C20.9812 20.5794 20.9244 20.3274 20.8905 20.0658C20.7882 19.2765 20.7925 18.4083 21.0493 17.6468C20.8537 17.6906 20.7651 17.8585 20.6508 17.9948Z" fill="url(#paint2_linear_13_39)"/><path d="M43.2938 15.9935C43.2361 15.9942 43.1784 15.9976 43.1207 15.9976C43.0407 15.9983 42.9607 15.9997 42.8807 16.0004C42.8262 16.0009 42.7715 16.0007 42.7168 16.0007C42.6158 16.0005 42.5145 16.0003 42.4137 16.0038C42.274 16.0092 42.1435 16.0566 42.0444 16.1608C41.9263 16.2841 41.8326 16.4602 41.6765 16.8378C41.6503 16.9002 41.63 16.953 41.6155 16.9893C41.5564 17.1175 40.7183 18.9281 40.4022 19.4523C40.3792 19.4914 40.3274 19.575 40.2631 19.5723C40.1989 19.575 40.147 19.4914 40.124 19.4523C39.808 18.9281 38.9697 17.1175 38.9108 16.9893C38.8963 16.953 38.876 16.9002 38.8498 16.8378C38.6937 16.4602 38.5998 16.2841 38.4818 16.1608C38.3828 16.0566 38.2523 16.0092 38.1126 16.0038C38.0117 16.0003 37.9105 16.0005 37.8094 16.0007C37.7548 16.0007 37.7002 16.0009 37.6456 16.0004C37.5656 15.9997 37.4855 15.9983 37.4056 15.9976C37.3479 15.9976 37.2901 15.9942 37.2324 15.9935C37.1491 15.9928 37.0711 16.0195 37.0002 16.0641C36.869 16.1484 36.8127 16.2717 36.7923 16.3184C36.7543 16.4041 36.7471 16.478 36.7411 16.5089C36.6834 16.7995 36.6776 17.0407 36.6828 17.2031C36.6219 19.0665 36.5608 20.9293 36.4998 22.7926C36.5018 22.8235 36.5077 22.8667 36.5247 22.9146C36.6205 23.1874 36.9674 23.3218 37.235 23.3251C37.5053 23.3286 37.8279 23.2012 37.942 22.9536C37.9434 22.9509 37.9644 22.9029 37.9755 22.8496C38.0549 22.4699 38.1008 19.414 38.1178 18.0824C38.8491 19.5771 39.4216 20.6942 39.686 21.1869C39.7397 21.2884 39.8545 21.4919 40.0657 21.5611C40.1267 21.5817 40.1942 21.5926 40.2631 21.5933C40.332 21.5926 40.3996 21.5817 40.4605 21.5611C40.6717 21.4919 40.7864 21.2884 40.8403 21.1869C41.1046 20.6942 41.6771 19.5771 42.4084 18.0824C42.4255 19.414 42.4714 22.4699 42.5508 22.8496C42.562 22.9029 42.5829 22.9509 42.5842 22.9536C42.6983 23.2012 43.021 23.3286 43.2912 23.3251C43.5588 23.3218 43.9058 23.1874 44.0015 22.9146C44.0186 22.8667 44.0245 22.8235 44.0264 22.7926C43.9654 20.9293 43.9045 19.0665 43.8435 17.2031C43.8487 17.0407 43.8429 16.7995 43.7851 16.5089C43.7792 16.478 43.772 16.4041 43.734 16.3184C43.7136 16.2717 43.6573 16.1484 43.526 16.0641C43.456 16.02 43.3791 15.9935 43.2969 15.9935C43.2958 15.9935 43.2949 15.9935 43.2938 15.9935Z" fill="url(#paint3_linear_13_39)"/><path d="M33.6542 16.2043C33.5494 16.3204 33.521 16.4575 33.5121 16.5403C33.5077 17.9154 33.5032 19.2904 33.4989 20.6654C33.5014 20.8002 33.4879 21.0537 33.3516 21.3328C33.2077 21.6276 33.0038 21.7942 32.9514 21.8355C32.9514 21.8355 32.6042 22.1089 32.1501 22.1457C32.1047 22.1493 32.057 22.1509 32.057 22.1509C32.0451 22.1514 32.0331 22.1517 32.0212 22.1517C32.0092 22.1517 31.9973 22.1514 31.9854 22.1509C31.9853 22.1509 31.9376 22.1493 31.8922 22.1457C31.4381 22.1089 31.0909 21.8355 31.0909 21.8355C31.0386 21.7942 30.8346 21.6276 30.6909 21.3328C30.5546 21.0537 30.5408 20.8002 30.5434 20.6654C30.5391 19.2904 30.5347 17.9154 30.5303 16.5403C30.5214 16.4575 30.4929 16.3204 30.3882 16.2043C30.1996 15.9955 29.8986 16.0038 29.6618 16.0102C29.4123 16.0171 29.1523 16.0241 29.0003 16.2158C28.881 16.3662 28.8904 16.5519 28.9 16.6327V20.9502C28.9 21.3519 29.0158 21.8842 29.4019 22.3895C29.8358 22.957 30.452 23.2099 30.6421 23.2804C31.027 23.4229 31.406 23.4629 31.522 23.4745C31.7232 23.4946 31.8945 23.4955 32.0212 23.4916C32.1479 23.4955 32.3192 23.4946 32.5204 23.4745C32.6363 23.4629 33.0153 23.4229 33.4003 23.2804C33.5902 23.2099 34.2065 22.957 34.6404 22.3895C35.0266 21.8842 35.1424 21.3519 35.1424 20.9502V16.6327C35.152 16.5519 35.1613 16.3662 35.042 16.2158C34.89 16.0241 34.6301 16.0171 34.3806 16.0102C34.338 16.009 34.2932 16.0078 34.2474 16.0078C34.0389 16.0078 33.8087 16.0331 33.6542 16.2043Z" fill="url(#paint4_linear_13_39)"/><path d="M46.4166 16.5541C45.8359 16.9893 45.4085 17.5999 45.1996 18.2935C44.6024 20.2836 45.5005 22.8227 47.6509 23.3841C47.9978 23.4745 48.3545 23.5129 48.7105 23.5032C49.0664 23.5129 49.4231 23.4745 49.7701 23.3841C51.9204 22.8227 52.8186 20.2836 52.2214 18.2935C52.0124 17.5999 51.585 16.9893 51.0044 16.5541C50.346 16.0613 49.5303 15.8029 48.7105 15.7837C47.8907 15.8029 47.075 16.0613 46.4166 16.5541ZM46.7959 20.5152C46.5795 19.6072 46.6193 18.5381 47.1292 17.7281C47.4825 17.1667 48.083 16.8343 48.7105 16.8296C49.3379 16.8343 49.9384 17.1667 50.2917 17.7281C50.8017 18.5381 50.8415 19.6072 50.625 20.5152C50.4003 21.4576 49.7729 22.4705 48.7105 22.4814C47.6481 22.4705 47.0207 21.4576 46.7959 20.5152Z" fill="url(#paint5_linear_13_39)"/><defs><linearGradient id="paint0_linear_13_39" x1="43.0558" y1="25.157" x2="70.657" y2="16.6608" gradientUnits="userSpaceOnUse"><stop stop-color="#9F8326"/><stop offset="0.329003" stop-color="#9F8326"/><stop offset="0.330336" stop-color="#9F8326"/><stop offset="0.560566" stop-color="#FFE7A8"/><stop offset="0.627021" stop-color="#FFE7A8"/><stop offset="0.787549" stop-color="#B6A149"/><stop offset="1" stop-color="#B6A149"/></linearGradient><linearGradient id="paint1_linear_13_39" x1="25.9265" y1="20.5067" x2="20.8514" y2="16.6556" gradientUnits="userSpaceOnUse"><stop stop-color="#9F8326"/><stop offset="0.329003" stop-color="#9F8326"/><stop offset="0.330336" stop-color="#9F8326"/><stop offset="0.560566" stop-color="#FFE7A8"/><stop offset="0.627021" stop-color="#FFE7A8"/><stop offset="0.787549" stop-color="#B6A149"/><stop offset="1" stop-color="#B6A149"/></linearGradient><linearGradient id="paint2_linear_13_39" x1="24.027" y1="23.01" x2="18.9519" y2="19.1588" gradientUnits="userSpaceOnUse"><stop stop-color="#9F8326"/><stop offset="0.329003" stop-color="#9F8326"/><stop offset="0.330336" stop-color="#9F8326"/><stop offset="0.560566" stop-color="#FFE7A8"/><stop offset="0.627021" stop-color="#FFE7A8"/><stop offset="0.787549" stop-color="#B6A149"/><stop offset="1" stop-color="#B6A149"/></linearGradient><linearGradient id="paint3_linear_13_39" x1="44.7657" y1="22.0723" x2="36.8724" y2="17.874" gradientUnits="userSpaceOnUse"><stop stop-color="#9F8326"/><stop offset="0.329003" stop-color="#9F8326"/><stop offset="0.330336" stop-color="#9F8326"/><stop offset="0.560566" stop-color="#FFE7A8"/><stop offset="0.627021" stop-color="#FFE7A8"/><stop offset="0.787549" stop-color="#B6A149"/><stop offset="1" stop-color="#B6A149"/></linearGradient><linearGradient id="paint4_linear_13_39" x1="35.9114" y1="21.685" x2="28.0208" y2="16.7313" gradientUnits="userSpaceOnUse"><stop stop-color="#9F8326"/><stop offset="0.329003" stop-color="#9F8326"/><stop offset="0.330336" stop-color="#9F8326"/><stop offset="0.560566" stop-color="#FFE7A8"/><stop offset="0.627021" stop-color="#FFE7A8"/><stop offset="0.787549" stop-color="#B6A149"/><stop offset="1" stop-color="#B6A149"/></linearGradient><linearGradient id="paint5_linear_13_39" x1="54.285" y1="22.8914" x2="44.4716" y2="17.1799" gradientUnits="userSpaceOnUse"><stop stop-color="#9F8326"/><stop offset="0.329003" stop-color="#9F8326"/><stop offset="0.330336" stop-color="#9F8326"/><stop offset="0.560566" stop-color="#FFE7A8"/><stop offset="0.627021" stop-color="#FFE7A8"/><stop offset="0.787549" stop-color="#B6A149"/><stop offset="1" stop-color="#B6A149"/></linearGradient></defs></svg>