<svg xmlns="http://www.w3.org/2000/svg" viewBox="0 0 84 40"><path fill="#0E397A" d="M33.17 26.943c-2.02-2.067-3.03-5.313-3.03-9.475V3.613c0-.327.276-.594.613-.594h7.082c.337 0 .613.267.613.594v14.284c0 1.35.2 2.898 1.047 4.017 1.318 1.74 4.191 1.74 5.508 0 .848-1.119 1.048-2.667 1.048-4.017v-2.485h8.308v2.056c0 4.162-1.011 7.408-3.03 9.475-4.055 4.149-14.104 4.149-18.159 0"/><path fill="#0E397A" d="M46.05 13.845V3.64c0-.342.29-.622.643-.622h1.159c.002 3.483 2.907 6.307 6.505 6.307h.002v4.519z"/><path fill="#FF6620" d="M49.473 3.019h4.244c.353 0 .642.28.642.622v4.115c-2.698 0-4.886-2.119-4.886-4.732z"/><path fill="#0E397A" d="M31.53 36.234c.938 0 1.39-.506 1.39-1.248v-1.79h-.67v1.772c0 .416-.244.702-.72.702s-.725-.286-.725-.702v-1.772h-.665v1.794c0 .734.453 1.244 1.39 1.244m24.426-3.302v.008a.564.564 0 0 1-.574.555.564.564 0 0 1-.573-.555c0-.307.257-.556.573-.556h.574zM36.97 36.18v-.56h-1.487l1.455-1.914v-.51h-2.315v.56h1.456l-1.456 1.91v.514zm3.218.054c.68 0 1.067-.363 1.29-.734l-.565-.264a.83.83 0 0 1-.725.434c-.559 0-.965-.416-.965-.98 0-.563.406-.98.965-.98.32 0 .596.193.725.434l.564-.268c-.217-.371-.61-.729-1.289-.729-.924 0-1.64.626-1.64 1.543s.716 1.544 1.64 1.544m5.815-.054-1.187-2.984h-.822l-1.192 2.984h.748l.194-.505h1.321l.19.505zm-1.118-1.065h-.96l.48-1.284zm5.377 1.813-1.13-1.884c.332-.076.674-.358.674-.886 0-.555-.392-.962-1.034-.962H47.33v2.984h.656v-1.06h.48l1.043 1.808zm-1.587-2.367h-.689v-.806h.689c.263 0 .461.152.461.403 0 .25-.198.403-.462.403m4.049 1.619c.965 0 1.635-.59 1.635-1.49 0-.899-.67-1.494-1.635-1.494h-1.215v2.984zm0-.56h-.56v-1.865h.56c.633 0 .965.407.965.935 0 .506-.356.93-.965.93"/></svg>