<svg xmlns="http://www.w3.org/2000/svg" viewBox="0 0 512 512"><path fill="#EEF0F2" d="M0 0h512v512H0z"/><path fill="#C8CED5" d="M234.183 264.217V145.925a8.07 8.07 0 0 0-5.245-7.717 8.1 8.1 0 0 0-3.255-.5 126.8 126.8 0 0 0-99.207 59.647A126.793 126.793 0 0 0 317.625 359.7a8.08 8.08 0 0 0 2.611-5.849 8.08 8.08 0 0 0-2.469-5.909zM385.767 239a126.79 126.79 0 0 0-118.009-118.008 8.06 8.06 0 0 0-6.038 2.258 8.07 8.07 0 0 0-2.462 5.958V247.5H377.55a8.09 8.09 0 0 0 5.959-2.461 8.07 8.07 0 0 0 2.258-6.039m10.625 33.433H278.1l83.583 83.584a8.087 8.087 0 0 0 9.223 1.823 8.05 8.05 0 0 0 2.677-1.965 126.8 126.8 0 0 0 31.025-75.083 8.06 8.06 0 0 0-2.258-6.039 8.062 8.062 0 0 0-5.958-2.461z"/></svg>